<svg width="50" height="50" viewBox="0 0 50 50" fill="none" xmlns="http://www.w3.org/2000/svg">
<g clip-path="url(#clip0_3165_13995)">
<path d="M49.2188 10.937C44.1539 10.937 40.432 7.29561 40.3953 7.25889C40.2486 7.11296 40.0501 7.0311 39.8432 7.03125C39.6363 7.0314 39.4379 7.11353 39.2914 7.25967C39.2547 7.29639 35.5547 10.937 30.4688 10.937C30.2616 10.937 30.0628 11.0193 29.9163 11.1658C29.7698 11.3123 29.6875 11.5111 29.6875 11.7183V19.2417C29.6841 22.177 30.6637 25.0289 32.47 27.3426C34.2764 29.6563 36.8055 31.2985 39.6539 32.0073C39.7786 32.0384 39.9089 32.0384 40.0336 32.0073C42.882 31.2984 45.411 29.6562 47.2173 27.3425C49.0237 25.0289 50.0033 22.177 50 19.2417V11.7183C50 11.5111 49.9177 11.3123 49.7712 11.1658C49.6247 11.0193 49.426 10.937 49.2188 10.937ZM48.4375 19.2417C48.4403 21.7949 47.5992 24.2775 46.045 26.3032C44.4908 28.3289 42.3106 29.7841 39.8438 30.4425C37.3769 29.7843 35.1968 28.3292 33.6426 26.3036C32.0884 24.2781 31.2473 21.7956 31.25 19.2425V12.4753C34.4201 12.1927 37.4235 10.9304 39.8438 8.86357C42.264 10.9304 45.2675 12.1927 48.4375 12.4753V19.2417Z" fill="#A414D5"/>
<path d="M39.4062 11.1386C37.5967 12.3768 35.5691 13.2611 33.4305 13.7448C33.2556 13.7822 33.0988 13.8785 32.9863 14.0175C32.8738 14.1566 32.8125 14.33 32.8125 14.5089V19.2425C32.8117 21.3338 33.4647 23.373 34.6802 25.0747C35.8957 26.7765 37.6129 28.0556 39.5914 28.7331C39.7553 28.789 39.933 28.789 40.0969 28.7331C42.0752 28.0555 43.7922 26.7763 45.0076 25.0746C46.223 23.3728 46.8759 21.3337 46.875 19.2425V14.5081C46.8748 14.3294 46.8134 14.1561 46.7009 14.0172C46.5885 13.8783 46.4318 13.7822 46.257 13.7448C44.1187 13.261 42.0913 12.3767 40.282 11.1386C40.1527 11.0508 40 11.0039 39.8438 11.0039C39.6875 11.0039 39.5356 11.0508 39.4062 11.1386ZM45.3125 15.1277V19.2425C45.3134 20.9621 44.7906 22.6412 43.8137 24.0564C42.8367 25.4715 41.452 26.5556 39.8438 27.1644C38.2356 26.5555 36.8509 25.4714 35.874 24.0563C34.8971 22.6411 34.3742 20.9621 34.375 19.2425V15.1277C36.3134 14.6185 38.1591 13.8061 39.8438 12.7206C41.5284 13.8061 43.3741 14.6185 45.3125 15.1277Z" fill="#A414D5"/>
<path d="M38.0523 18.9768C37.905 18.8345 37.7077 18.7557 37.5028 18.7575C37.298 18.7593 37.102 18.8415 36.9572 18.9863C36.8123 19.1312 36.7302 19.3271 36.7284 19.5319C36.7266 19.7368 36.8053 19.9341 36.9477 20.0815L38.5102 21.644C38.6567 21.7904 38.8553 21.8727 39.0625 21.8727C39.2697 21.8727 39.4683 21.7904 39.6148 21.644L42.7398 18.519C42.8145 18.4469 42.874 18.3607 42.9149 18.2654C42.9559 18.1701 42.9774 18.0676 42.9783 17.9638C42.9792 17.8601 42.9595 17.7572 42.9202 17.6612C42.8809 17.5652 42.8229 17.478 42.7495 17.4046C42.6762 17.3313 42.5889 17.2732 42.4929 17.234C42.3969 17.1947 42.294 17.1749 42.1903 17.1758C42.0866 17.1767 41.9841 17.1983 41.8887 17.2392C41.7934 17.2802 41.7072 17.3397 41.6352 17.4143L39.0625 19.9869L38.0523 18.9768ZM39.8438 33.5916C39.6366 33.5916 39.4378 33.6739 39.2913 33.8205C39.1448 33.967 39.0625 34.1657 39.0625 34.3729V39.0604C39.0619 39.6818 38.8147 40.2776 38.3753 40.717C37.9359 41.1564 37.3402 41.4035 36.7188 41.4041H3.90625C3.28484 41.4035 2.68906 41.1564 2.24965 40.717C1.81025 40.2776 1.56312 39.6818 1.5625 39.0604V29.6854H30.7188C30.926 29.6854 31.1247 29.6031 31.2712 29.4566C31.4177 29.31 31.5 29.1113 31.5 28.9041C31.5 28.6969 31.4177 28.4982 31.2712 28.3517C31.1247 28.2052 30.926 28.1229 30.7188 28.1229H1.5625V24.9979H28.1562C28.3635 24.9979 28.5622 24.9156 28.7087 24.7691C28.8552 24.6225 28.9375 24.4238 28.9375 24.2166C28.9375 24.0094 28.8552 23.8107 28.7087 23.6642C28.5622 23.5177 28.3635 23.4354 28.1562 23.4354H1.5625V22.6541C1.56312 22.0327 1.81025 21.4369 2.24965 20.9975C2.68906 20.5581 3.28484 20.311 3.90625 20.3104H27.3438C27.551 20.3104 27.7497 20.2281 27.8962 20.0816C28.0427 19.935 28.125 19.7363 28.125 19.5291C28.125 19.3219 28.0427 19.1232 27.8962 18.9767C27.7497 18.8302 27.551 18.7479 27.3438 18.7479H3.90625C2.87063 18.7491 1.87778 19.1611 1.14548 19.8934C0.413189 20.6257 0.00124051 21.6185 0 22.6541L0 39.0604C0.00124051 40.096 0.413189 41.0889 1.14548 41.8211C1.87778 42.5534 2.87063 42.9654 3.90625 42.9666H36.7188C37.7544 42.9654 38.7472 42.5534 39.4795 41.8211C40.2118 41.0889 40.6238 40.096 40.625 39.0604V34.3729C40.625 34.1657 40.5427 33.967 40.3962 33.8205C40.2497 33.6739 40.0509 33.5916 39.8438 33.5916Z" fill="black"/>
<path d="M37.5029 18.7575C37.7077 18.7557 37.905 18.8345 38.0524 18.9768L39.0625 19.9869L41.6352 17.4143C41.7073 17.3397 41.7935 17.2802 41.8888 17.2392C41.9841 17.1983 42.0866 17.1767 42.1904 17.1758C42.2941 17.1749 42.397 17.1947 42.493 17.234C42.589 17.2732 42.6762 17.3313 42.7496 17.4046C42.8229 17.478 42.8809 17.5652 42.9202 17.6612C42.9595 17.7572 42.9793 17.8601 42.9784 17.9638C42.9775 18.0676 42.9559 18.1701 42.915 18.2654C42.874 18.3607 42.8145 18.4469 42.7399 18.519L39.6149 21.644C39.4684 21.7904 39.2697 21.8727 39.0625 21.8727C38.8554 21.8727 38.6567 21.7904 38.5102 21.644L36.9477 20.0815C36.8054 19.9341 36.7266 19.7368 36.7284 19.5319C36.7302 19.3271 36.8124 19.1312 36.9572 18.9863C37.1021 18.8415 37.298 18.7593 37.5029 18.7575Z" fill="#A414D5"/>
<path d="M3.90625 35.9375C3.69905 35.9375 3.50034 36.0198 3.35382 36.1663C3.20731 36.3128 3.125 36.5115 3.125 36.7188V39.0625C3.125 39.2697 3.20731 39.4684 3.35382 39.6149C3.50034 39.7614 3.69905 39.8438 3.90625 39.8438H7.03125C7.23845 39.8438 7.43716 39.7614 7.58368 39.6149C7.73019 39.4684 7.8125 39.2697 7.8125 39.0625V36.7188C7.8125 36.5115 7.73019 36.3128 7.58368 36.1663C7.43716 36.0198 7.23845 35.9375 7.03125 35.9375H3.90625ZM6.25 38.2812H4.6875V37.5H6.25V38.2812ZM22.6562 35.9375H9.375C9.1678 35.9375 8.96909 36.0198 8.82257 36.1663C8.67606 36.3128 8.59375 36.5115 8.59375 36.7188C8.59375 36.926 8.67606 37.1247 8.82257 37.2712C8.96909 37.4177 9.1678 37.5 9.375 37.5H22.6562C22.8635 37.5 23.0622 37.4177 23.2087 37.2712C23.3552 37.1247 23.4375 36.926 23.4375 36.7188C23.4375 36.5115 23.3552 36.3128 23.2087 36.1663C23.0622 36.0198 22.8635 35.9375 22.6562 35.9375ZM9.375 38.2812C9.1678 38.2812 8.96909 38.3636 8.82257 38.5101C8.67606 38.6566 8.59375 38.8553 8.59375 39.0625C8.59375 39.2697 8.67606 39.4684 8.82257 39.6149C8.96909 39.7614 9.1678 39.8438 9.375 39.8438H10.9375C11.1447 39.8438 11.3434 39.7614 11.4899 39.6149C11.6364 39.4684 11.7188 39.2697 11.7188 39.0625C11.7188 38.8553 11.6364 38.6566 11.4899 38.5101C11.3434 38.3636 11.1447 38.2812 10.9375 38.2812H9.375ZM13.2812 38.2812C13.074 38.2812 12.8753 38.3636 12.7288 38.5101C12.5823 38.6566 12.5 38.8553 12.5 39.0625C12.5 39.2697 12.5823 39.4684 12.7288 39.6149C12.8753 39.7614 13.074 39.8438 13.2812 39.8438H14.8438C15.051 39.8438 15.2497 39.7614 15.3962 39.6149C15.5427 39.4684 15.625 39.2697 15.625 39.0625C15.625 38.8553 15.5427 38.6566 15.3962 38.5101C15.2497 38.3636 15.051 38.2812 14.8438 38.2812H13.2812ZM17.1875 38.2812C16.9803 38.2812 16.7816 38.3636 16.6351 38.5101C16.4886 38.6566 16.4062 38.8553 16.4062 39.0625C16.4062 39.2697 16.4886 39.4684 16.6351 39.6149C16.7816 39.7614 16.9803 39.8438 17.1875 39.8438H18.75C18.9572 39.8438 19.1559 39.7614 19.3024 39.6149C19.4489 39.4684 19.5312 39.2697 19.5312 39.0625C19.5312 38.8553 19.4489 38.6566 19.3024 38.5101C19.1559 38.3636 18.9572 38.2812 18.75 38.2812H17.1875ZM22.6562 38.2812H21.0938C20.8865 38.2812 20.6878 38.3636 20.5413 38.5101C20.3948 38.6566 20.3125 38.8553 20.3125 39.0625C20.3125 39.2697 20.3948 39.4684 20.5413 39.6149C20.6878 39.7614 20.8865 39.8438 21.0938 39.8438H22.6562C22.8635 39.8438 23.0622 39.7614 23.2087 39.6149C23.3552 39.4684 23.4375 39.2697 23.4375 39.0625C23.4375 38.8553 23.3552 38.6566 23.2087 38.5101C23.0622 38.3636 22.8635 38.2812 22.6562 38.2812Z" fill="black"/>
</g>
<defs>
<clipPath id="clip0_3165_13995">
<rect width="50" height="50" fill="white"/>
</clipPath>
</defs>
</svg>
